<?xml version="1.0" standalone="no"?>
<!DOCTYPE svg PUBLIC "-//W3C//DTD SVG 20010904//EN"
 "http://www.w3.org/TR/2001/REC-SVG-20010904/DTD/svg10.dtd">
<svg version="1.0" xmlns="http://www.w3.org/2000/svg"
 width="693.000000pt" height="693.000000pt" viewBox="0 0 693.000000 693.000000"
 preserveAspectRatio="xMidYMid meet">
<metadata>
Created by potrace 1.11, written by Peter Selinger 2001-2013
</metadata>
<g transform="translate(0.000000,693.000000) scale(0.100000,-0.100000)"
fill="#000000" stroke="none">
<path d="M3406 6079 c-15 -12 -68 -76 -117 -143 -105 -141 -80 -108 -306 -408
-98 -130 -186 -247 -195 -260 -9 -13 -116 -155 -237 -317 -237 -316 -241 -323
-206 -391 25 -48 48 -55 204 -60 l143 -5 -107 -140 c-58 -77 -116 -153 -128
-169 -12 -16 -67 -88 -122 -160 -347 -453 -328 -425 -322 -473 5 -51 35 -88
81 -102 17 -5 119 -9 228 -8 129 2 194 -1 190 -8 -3 -5 -76 -106 -161 -223
-86 -118 -194 -266 -241 -331 -47 -64 -122 -167 -168 -228 -45 -62 -85 -125
-88 -141 -8 -41 21 -99 60 -119 28 -15 103 -16 734 -15 654 1 702 0 703 -16 0
-23 1 -823 0 -897 l-1 -60 -332 2 c-295 1 -336 -1 -361 -15 -80 -47 -72 -164
13 -206 36 -18 1575 -16 1607 2 58 33 77 94 48 156 -29 61 -27 61 -393 63
-184 1 -336 4 -338 6 -4 3 -6 538 -4 878 l0 87 704 -1 c775 0 732 -3 773 60
39 59 28 84 -118 283 -429 586 -519 709 -519 717 0 4 91 8 202 7 150 -1 210 3
230 12 41 21 68 62 68 105 0 34 -15 59 -122 201 -67 90 -125 165 -128 168 -3
3 -39 50 -80 105 -41 55 -81 106 -87 115 -7 8 -69 89 -138 180 l-125 165 149
5 c138 5 151 7 174 28 29 28 46 78 36 113 -5 19 -552 764 -682 929 -7 9 -92
122 -189 251 -97 130 -189 246 -204 258 -35 28 -93 28 -128 0z m440 -791 c206
-277 381 -510 388 -518 7 -9 15 -21 19 -26 4 -7 -34 -11 -116 -11 -67 -1 -133
-2 -147 -2 -53 -2 -109 -83 -96 -137 4 -15 100 -149 214 -298 113 -149 249
-327 301 -396 52 -69 109 -144 128 -167 18 -23 33 -44 33 -47 0 -3 -90 -6
-200 -6 -220 0 -240 -4 -279 -59 -42 -58 -33 -78 127 -298 394 -539 512 -702
512 -706 0 -8 -2510 -4 -2515 4 -3 4 5 20 18 36 13 15 146 197 297 403 150
206 288 395 306 419 52 68 43 132 -25 178 -33 22 -42 23 -237 23 -112 0 -204
2 -204 5 0 2 53 73 117 157 465 611 554 731 559 757 9 44 -22 100 -66 120 -28
12 -66 16 -168 15 l-132 -1 38 51 c39 53 255 344 269 361 53 66 460 613 467
627 5 10 11 18 13 18 2 0 172 -226 379 -502z"/>
</g>
</svg>
